<svg id="heads" xmlns="http://www.w3.org/2000/svg" xmlns:xlink="http://www.w3.org/1999/xlink" viewBox="0 0 215.05 376"><defs><style>.cls-1{fill:none;}.cls-2{clip-path:url(#clip-path);}.cls-3,.cls-4,.cls-5{fill:#fff;stroke:#ef5323;}.cls-3,.cls-4{stroke-linecap:round;stroke-linejoin:round;}.cls-3{stroke-width:8.61px;}.cls-4{stroke-width:7.92px;}.cls-5{stroke-width:11.49px;}.cls-6{fill:#ef5323;}</style><clipPath id="clip-path"><rect class="cls-1" width="215.05" height="376"/></clipPath></defs><title>dog1left</title><g class="cls-2"><path class="cls-3" d="M-27.41,329.46c-8.76,10.18,5.15,40.88,27.46,41.71,23.57,0.86,34.86-29.7,25.38-39.77C13.71,319,13.9,308.72,1.82,308.26S-12.85,312.53-27.41,329.46Z"/><path class="cls-4" d="M-34.21,16.09c-137.43,0-197.34,228.37-90.75,211.84C-90.3,224-70,97.2-111.42,96.24c0,0-44.92,2,12.08,102,0,0-60.08,140.58,22.1,152.57C2,362.41,93.1,180.81.24,180.81c-61.6,0-41.67,80.33-.55,131H0.44c41.12-50.67,61-131-.55-131-92.86,0-1.8,181.59,77.48,170,82.18-12,22.1-152.57,22.1-152.57,57-100.06,12.08-102,12.08-102C70.17,97.2,90.43,224,125.09,227.92,231.67,244.46,171.76,16.09,34.34,16.09H-34.21Z"/><path class="cls-5" d="M17.15,116.76c-0.54,10.25,8.44,19.09,20.12,19.72S58.79,129.3,59.34,119,50.9,100,39.24,99.33,17.71,106.51,17.15,116.76Z"/><path class="cls-6" d="M32.39,117.6c-0.15,2.84,2.35,5.31,5.58,5.47s6-2,6.13-4.84-2.34-5.31-5.56-5.48S32.54,114.73,32.39,117.6Z"/><path class="cls-6" d="M-36.94,183.88c-1,17.7,14.59,33,34.74,34.06S35,205.52,36,187.82s-14.59-33-34.72-34S-36,166.14-36.94,183.88Z"/></g></svg>