<svg id="heads" xmlns="http://www.w3.org/2000/svg" xmlns:xlink="http://www.w3.org/1999/xlink" viewBox="0 0 215.05 376"><defs><style>.cls-1{fill:none;}.cls-2{clip-path:url(#clip-path);}.cls-3,.cls-4,.cls-5{fill:#fff;stroke:#ef5323;}.cls-3,.cls-4{stroke-linecap:round;stroke-linejoin:round;}.cls-3{stroke-width:8.61px;}.cls-4{stroke-width:7.92px;}.cls-5{stroke-width:11.49px;}.cls-6{fill:#ef5323;}</style><clipPath id="clip-path"><rect class="cls-1" width="215.05" height="376"/></clipPath></defs><title>dog1right</title><g class="cls-2"><path class="cls-3" d="M187.58,329.46c-8.76,10.18,5.15,40.88,27.46,41.71,23.57,0.86,34.86-29.7,25.38-39.77-11.72-12.37-11.53-22.68-23.61-23.15S202.13,312.53,187.58,329.46Z"/><path class="cls-4" d="M180.77,16.09C43.34,16.09-16.57,244.46,90,227.92c34.66-4,54.92-130.72,13.55-131.69,0,0-44.92,2,12.08,102,0,0-60.08,140.58,22.1,152.57,79.28,11.56,170.34-170,77.48-170-61.6,0-41.67,80.33-.55,131h0.75c41.12-50.67,61-131-.55-131-92.86,0-1.8,181.59,77.48,170,82.18-12,22.1-152.57,22.1-152.57,57-100.06,12.08-102,12.08-102-41.37,1-21.11,127.72,13.55,131.69,106.58,16.54,46.68-211.84-90.75-211.84H180.77Z"/><path class="cls-5" d="M155.76,116.77c-0.55,10.24,8.45,19.09,20.1,19.7s21.53-7.17,22.08-17.42S189.5,100,177.87,99.33,156.32,106.51,155.76,116.77Z"/><path class="cls-6" d="M171,117.58c-0.15,2.84,2.34,5.31,5.58,5.49s6-2,6.14-4.86-2.34-5.29-5.57-5.47S171.14,114.72,171,117.58Z"/><path class="cls-6" d="M178,183.88c-1,17.7,14.59,33,34.74,34.06s37.22-12.42,38.16-30.13-14.59-33-34.72-34S179,166.14,178,183.88Z"/></g></svg>