<svg id="background" xmlns="http://www.w3.org/2000/svg" viewBox="0 0 320 320"><defs><style>.cls-1,.cls-5{fill:#ef5323;}.cls-1{stroke:#fff;stroke-miterlimit:10;stroke-width:2px;}.cls-2,.cls-3,.cls-4{fill:#fff;stroke:#ef5323;}.cls-2,.cls-3{stroke-linecap:round;stroke-linejoin:round;}.cls-2{stroke-width:4.43px;}.cls-3{stroke-width:9.05px;}.cls-4{stroke-width:4.53px;}</style></defs><title>dogslogo</title><circle class="cls-1" cx="159" cy="158" r="149.24"/><path class="cls-2" d="M175.73,239.55c5.62,9.6-2.52,25.3-16.58,25.84-14.84.55-22.58-15.33-16.71-24.62,7.24-11.42,7-21.09,14.62-21.37S166.35,223.56,175.73,239.55Z"/><path class="cls-2" d="M122.53,242.82c-52.64-16.54-36.86-61.77-36.86-61.77-30.47-47.39-.34-50.82,2-50.78,21.71,0.41,8.84,51.5-10.48,56C11.91,196.37,63.64,53.17,154.51,50.63s154.34,129.85,88.33,126.81c-33.61-.1-46.09-50.35-22.44-51.89,0,0,21.67-2.71,4.9,46.86,0,0,22.43,54.14-29.37,70.42-53.75,16.89-73.5-85.39-36.68-85.39C195.46,157.43,175.38,259.43,122.53,242.82Z"/><path class="cls-3" d="M113.78,106.77a23,23,0,0,1,12.56-4.44c11.68-.63,21.61,7.16,22.16,17.45s-8.46,19.1-20.17,19.73c-10,.54-18.78-5.18-21.38-13.33"/><path class="cls-4" d="M199.13,116.54c0.46,8.6-7.11,16-16.9,16.55s-18.11-6-18.58-14.65,7.11-16,16.89-16.55S198.66,107.92,199.13,116.54Z"/><path class="cls-5" d="M135.81,120.23c0.25,4.71-3.88,8.76-9.2,9s-9.9-3.28-10.14-8,3.86-8.72,9.2-9S135.55,115.52,135.81,120.23Z"/><path class="cls-5" d="M191.06,117c0.25,4.71-3.88,8.76-9.2,9s-9.9-3.28-10.14-8,3.86-8.72,9.2-9S190.79,112.25,191.06,117Z"/><path class="cls-5" d="M170.59,160.77c0.3,9.88-4.65,18.4-11.05,19s-11.83-6.94-12.13-16.83,4.64-18.4,11-19S170.29,150.88,170.59,160.77Z"/></svg>