<svg id="Layer_4" data-name="Layer 4" xmlns="http://www.w3.org/2000/svg" xmlns:xlink="http://www.w3.org/1999/xlink" viewBox="0 0 586.01 635.97"><defs><style>.cls-1,.cls-4{fill:none;}.cls-2{clip-path:url(#clip-path);}.cls-3,.cls-5,.cls-7,.cls-8{fill:#fff;}.cls-3,.cls-4,.cls-5,.cls-7,.cls-8{stroke:#ef5323;}.cls-3,.cls-4,.cls-7{stroke-linecap:round;stroke-linejoin:round;}.cls-3,.cls-5{stroke-width:5.68px;}.cls-4,.cls-7{stroke-width:8.52px;}.cls-6{fill:#ef5323;}.cls-8{stroke-width:2.84px;}</style><clipPath id="clip-path"><rect class="cls-1" width="586.01" height="635.97"/></clipPath></defs><title>dogstwo</title><g class="cls-2"><path class="cls-3" d="M200.23,266.79S190,147.47,157.33,160.25c-18.47,8.52-32,43.84,29.32,117.11"/><path class="cls-3" d="M479.72,385.31c-4.15,75.34-66.45,51.85-66.53,18.7s-4.05-91.89,29.18-99.6C442.36,304.41,483.71,312.7,479.72,385.31Z"/><path class="cls-3" d="M345.72,336.43c-23.64,97.92,8.69,223.69,31,220.75,0,0,14,.2,9.25-23.21,0,0-.38-6.8-7.65-5.81-10.31,1.13.68,31.77,17.22,29.24s18-33.22,3.14-31.44c-11.71,1.48-9.24,32.78,17.69,28.69s-38.68-233.88,27.27-240.08l1.49-.29c57.88-2.76,7.56,236.3,34.5,240.37s29.4-27.21,17.7-28.69c-14.86-1.78-13.41,28.92,3.14,31.44s27.53-28.11,17.21-29.24c-7.26-1-7.64,5.81-7.64,5.81-4.78,23.41,9.24,23.21,9.24,23.21,37,4.87,76.79-313.05-123.16-312-111.87,2.5-170.08-10.85-208.52,34-61.9,72.22-63.35,217-33.87,216.7,0,0,12.63,1.39,10.12-29.1,0,0,.55-8.71-8.84-8.56-13.29-.13,2.15,38.53,23.48,36.33,16.57-1.71,22.24-25.4,9.73-25-8.46.36-20.09,24.59,11.51,25.25C234.65,495.51,160.38,273.75,345.72,336.43Z"/><path class="cls-4" d="M401.33,237.1c-28.85,0-96.72,16.35-108.44-16.38-11.57-32.32,35.59-39.12,33.73-13.08-2.68,37.64-66.92,25.28-86.11,18.18-51.29-19-68.51-44.49-125.94-41.09-16.68,1-59,7.76-49.91,33.63,7,20,30.58,12.49,33.59-6.36,6-37.31-83.55-85.48-105.87-85.71"/><path class="cls-5" d="M452.25,318.64c3.5,5.28-1.84,21-10.64,21.37-9.29.34-13.88-15.47-10.19-20.61,4.57-6.32,4.45-11.64,9.21-11.82S446.43,309.85,452.25,318.64Z"/><path class="cls-3" d="M406.76,326.1c-48.3-8.47-24.23-83.7-24.23-83.7-31.21-54.7-6.08-55.49-6.08-55.49,22.66,0.53,10.57,69.26-7.42,72-58.37,9-30.29-119.78,44.59-123.33L450,137c74.83-4.51,115.8,119.21,56.8,116.48-20.71,1.38-36.24-69.4-15.1-70.77,0,0,24.22-1.58,2.11,58.81,0,0,33.61,64.95-15.52,81-41.85,13.67-90-86.29-41.75-89.38S452.53,334.12,406.76,326.1Z"/><path class="cls-5" d="M426.51,200.36c0.29,5.61-4.62,10.43-11,10.78s-11.79-3.92-12.09-9.54,4.62-10.43,11-10.77S426.21,194.75,426.51,200.36Z"/><path class="cls-5" d="M467.94,198.13c0.3,5.6-4.63,10.43-11,10.77s-11.79-3.92-12.09-9.52,4.62-10.43,11-10.78S467.64,192.52,467.94,198.13Z"/><path class="cls-6" d="M417.38,200.71a3.24,3.24,0,1,1-3.37-2.65A3,3,0,0,1,417.38,200.71Z"/><path class="cls-6" d="M459.53,198.44a3.24,3.24,0,1,1-3.37-2.65A3,3,0,0,1,459.53,198.44Z"/><path class="cls-6" d="M456.92,234.82c0.52,9.68-8,18-19,18.62S417.51,246.65,417,237s8-18,19-18.61S456.41,225.12,456.92,234.82Z"/><path class="cls-3" d="M84.59,395.79s-3.51-67-36.8-60c-18.72,6.78-8.39,26.47,26.79,64.88"/><path class="cls-3" d="M331.8,486.13c-0.42,4.62-4.5-9-14.25-9.25s-11.25,13.25-11.25,13.25-2.1-12.9-7.92-14.7-10.12,14.41-10.12,14.41c1.54-14.21-6.46-14.21-6.46-14.21-8.75-.5-10,23-10,23s-8.33-58.75,30.8-61.61C302.55,437.06,336.19,437.34,331.8,486.13Z"/><path class="cls-3" d="M120,441.43c5.28,31.55-18.12,80-6.84,81.24C135,525,137,507,127.47,506.09c-12-1-10.87,16.71,2.55,18.17s22.32-16.24,14-16.89c-5.9-.57-6.2,3.36-6.2,3.36-3.88,13.51,7.49,13.4,7.49,13.4,12.85,1.2,31.75-50.21,21.91-87.47"/><path class="cls-3" d="M230.37,448.27c-22.77,67.23-16,147.84,5.5,145.81,0,0,13.51.14,8.91-15.93,0,0-.37-4.66-7.37-4-9.93.77,0.65,21.81,16.59,20.07s17.33-22.82,3-21.6c-11.28,1-8.91,22.51,17,19.71s-36.47-150.85,27.06-155.11l1.43-.19c55.75-1.9,6.88,165.24,32.83,168.05s28.73-21.69,17.45-22.71c-14.32-1.22-12.69,21.16,3.25,22.9s26.29-20.6,16.35-21.37c-7-.68-7.36,4-7.36,4-4.6,16.07,8.9,17.58,8.9,17.58C409.6,608.85,408,364.1,255.34,389.62c-107.77,1.71-147.22-15.95-184.23,14.85C29.36,441.38,29.46,564,57.38,561.88c15.83,0.42,14.56-22.44,1.65-21.61s-2.9,22.57,12.91,21.66c18.51-1.07,16.06-22.36,9.4-24-10.83,2.09-14,24,10.18,21.93C125,557,13,392.89,230.37,448.27Z"/><path class="cls-3" d="M306.42,425.69c2.71,4.1-1.28,10.83-8.1,11.09-7.2.27-10.93-6.51-8.06-10.5,3.54-4.9,3.45-9,7.14-9.17S301.91,418.87,306.42,425.69Z"/><path class="cls-3" d="M272.39,429.83C234.91,423.26,246.82,387,246.82,387c-21.13-32.87-.24-35.25,1.41-35.22,15.06,0.28,6.13,35.71-7.26,38.82-45.29,7-9.42-92.29,53.6-94.05s107,90.05,61.26,87.94c-23.31-.07-32-34.92-15.56-36,0,0,15-1.88,3.4,32.5,0,0,17.75,33-20.37,45.45-32.47,10.61-55.32-53.2-29.92-55.84C319.69,367.88,307.89,436,272.39,429.83Z"/><path class="cls-7" d="M266.32,335.48A15.93,15.93,0,0,1,275,332.4c8.1-.44,15,5,15.37,12.1s-5.87,13.24-14,13.68c-7,.38-13-3.59-14.83-9.24"/><path class="cls-8" d="M325.51,342.25c0.32,6-4.93,11.12-11.72,11.48s-12.56-4.18-12.89-10.16,4.93-11.11,11.72-11.48S325.19,336.27,325.51,342.25Z"/><path class="cls-6" d="M281.6,344.81c0.17,3.26-2.69,6.07-6.38,6.27s-6.87-2.27-7-5.54,2.68-6.05,6.38-6.25S281.41,341.55,281.6,344.81Z"/><path class="cls-6" d="M319.91,342.54c0.17,3.26-2.69,6.07-6.38,6.27s-6.87-2.27-7-5.54,2.68-6.05,6.38-6.25S319.73,339.27,319.91,342.54Z"/><path class="cls-6" d="M302.42,372.93c0.21,6.85-3.22,12.76-7.66,13.18s-8.2-4.81-8.41-11.67,3.22-12.76,7.65-13.17S302.21,366.07,302.42,372.93Z"/><path class="cls-4" d="M224.14,388.28c-27-10.22-123.22-40.38-122.58-75.14,0.63-34.32,47.14-24,36.18-.27-15.84,34.25-50.38,18.74-68.8-3.67C21.13,251,67,127.64-7.27,103.49"/></g></svg>